<svg width="78" height="54" viewBox="0 0 78 54" fill="none" xmlns="http://www.w3.org/2000/svg">
<path d="M1.2195 17.6926C0.202512 18.1237 -0.272476 19.2975 0.158583 20.3145C0.589642 21.3315 1.76352 21.8065 2.7805 21.3754L2 19.534L1.2195 17.6926ZM38 10.034L37.911 8.036L38 10.034ZM76.6734 20.8484C77.6973 20.434 78.1914 19.268 77.777 18.2441L71.0243 1.55878C70.61 0.534879 69.444 0.0407661 68.4201 0.455144C67.3962 0.869522 66.9021 2.03547 67.3165 3.05937L73.3189 17.8908L58.4874 23.8932C57.4635 24.3076 56.9694 25.4735 57.3838 26.4974C57.7982 27.5213 58.9641 28.0154 59.988 27.601L76.6734 20.8484ZM76.5984 37.4171C77.6384 37.045 78.1799 35.9003 77.8078 34.8603C77.4357 33.8203 76.2909 33.2788 75.2509 33.6509L75.9247 35.534L76.5984 37.4171ZM1.08999 34.0001C0.106392 34.5027 -0.28354 35.7075 0.219055 36.6911L8.40932 52.7198C8.91191 53.7034 10.1167 54.0934 11.1003 53.5908C12.0839 53.0882 12.4738 51.8834 11.9713 50.8998L4.69102 36.652L18.9388 29.3718C19.9224 28.8692 20.3123 27.6644 19.8097 26.6808C19.3071 25.6972 18.1023 25.3073 17.1187 25.8099L1.08999 34.0001ZM2 19.534C2.7805 21.3754 2.78037 21.3755 2.78032 21.3755C2.78041 21.3755 2.78043 21.3755 2.78061 21.3754C2.78096 21.3752 2.78162 21.375 2.7826 21.3745C2.78456 21.3737 2.78778 21.3724 2.79224 21.3705C2.80115 21.3667 2.81503 21.3609 2.83378 21.353C2.87128 21.3373 2.92825 21.3135 3.00387 21.2821C3.15513 21.2194 3.381 21.1264 3.67502 21.0073C4.26315 20.769 5.12358 20.4265 6.20482 20.0126C8.3683 19.1846 11.4105 18.0731 14.9203 16.9412C21.9826 14.6636 30.7743 12.358 38.089 12.032L38 10.034L37.911 8.036C30.0427 8.38659 20.8345 10.831 13.6925 13.1342C10.1002 14.2928 6.98916 15.4294 4.77498 16.2769C3.66738 16.7009 2.78287 17.0529 2.17325 17.2999C1.86841 17.4234 1.6322 17.5206 1.47111 17.5874C1.39056 17.6208 1.32878 17.6467 1.28658 17.6644C1.26548 17.6732 1.24927 17.68 1.23806 17.6848C1.23245 17.6871 1.22809 17.689 1.22499 17.6903C1.22345 17.6909 1.22221 17.6915 1.2213 17.6918C1.22084 17.692 1.22039 17.6922 1.22016 17.6923C1.21979 17.6925 1.2195 17.6926 2 19.534ZM38 10.034L38.089 12.032C45.3169 11.71 54.5199 13.8584 62.0689 16.1727C65.8111 17.3199 69.0874 18.4888 71.4274 19.3707C72.5967 19.8114 73.5304 20.1798 74.1696 20.437C74.4891 20.5657 74.7349 20.6664 74.8996 20.7345C74.9819 20.7686 75.044 20.7945 75.0848 20.8116C75.1052 20.8201 75.1203 20.8265 75.13 20.8306C75.1349 20.8326 75.1383 20.8341 75.1405 20.835C75.1415 20.8354 75.1422 20.8357 75.1426 20.8359C75.1428 20.8359 75.1428 20.836 75.1429 20.836C75.1428 20.836 75.1427 20.8359 75.9231 18.9944C76.7035 17.153 76.7031 17.1528 76.7027 17.1527C76.7025 17.1526 76.702 17.1523 76.7015 17.1521C76.7005 17.1517 76.6991 17.1511 76.6974 17.1504C76.694 17.149 76.6892 17.1469 76.6831 17.1444C76.6708 17.1392 76.653 17.1317 76.63 17.1221C76.5838 17.1027 76.5163 17.0746 76.4284 17.0382C76.2525 16.9655 75.9949 16.8599 75.663 16.7263C74.9993 16.4592 74.0379 16.0799 72.838 15.6277C70.4398 14.7239 67.0821 13.5258 63.2414 12.3484C55.6246 10.0133 45.866 7.68155 37.911 8.036L38 10.034ZM75.9247 35.534C75.2509 33.6509 75.251 33.6509 75.2511 33.6509C75.251 33.6509 75.251 33.6509 75.2508 33.6509C75.2505 33.6511 75.2499 33.6513 75.249 33.6516C75.2472 33.6522 75.2443 33.6533 75.2402 33.6547C75.232 33.6577 75.2192 33.6622 75.2019 33.6683C75.1673 33.6806 75.1147 33.6991 75.0448 33.7236C74.9049 33.7725 74.6957 33.845 74.4231 33.938C73.8776 34.1239 73.0782 34.3914 72.0701 34.7149C70.0533 35.3621 67.2055 36.2322 63.8891 37.1211C57.2272 38.9067 48.7897 40.7365 41.4189 41.0357L41.5 43.034L41.5811 45.0324C49.3958 44.7152 58.1706 42.795 64.9247 40.9847C68.3162 40.0756 71.2274 39.1862 73.2924 38.5236C74.3253 38.1921 75.1476 37.917 75.7136 37.7241C75.9966 37.6276 76.2157 37.5516 76.365 37.4994C76.4397 37.4733 76.497 37.4531 76.5361 37.4393C76.5557 37.4323 76.5707 37.427 76.5811 37.4233C76.5863 37.4214 76.5904 37.42 76.5933 37.419C76.5947 37.4184 76.5959 37.418 76.5967 37.4177C76.5971 37.4176 76.5976 37.4174 76.5978 37.4173C76.5981 37.4172 76.5984 37.4171 75.9247 35.534ZM41.5 43.034L41.4189 41.0357C34.119 41.332 24.4719 39.5778 16.5166 37.6926C12.5673 36.7567 9.0858 35.8012 6.59226 35.0798C5.34604 34.7193 4.34801 34.4176 3.66332 34.2067C3.32101 34.1012 3.05712 34.0185 2.8798 33.9624C2.79115 33.9344 2.72415 33.913 2.67982 33.8988C2.65765 33.8917 2.64115 33.8864 2.63045 33.883C2.6251 33.8813 2.6212 33.88 2.61877 33.8792C2.61755 33.8788 2.6167 33.8785 2.61621 33.8784C2.61597 33.8783 2.61589 33.8783 2.61576 33.8782C2.61577 33.8782 2.61587 33.8783 2.00002 35.7811C1.38418 37.6839 1.38446 37.684 1.38484 37.6841C1.38509 37.6842 1.38556 37.6844 1.38605 37.6845C1.38705 37.6848 1.38842 37.6853 1.39015 37.6858C1.39362 37.687 1.39856 37.6886 1.40495 37.6906C1.41774 37.6947 1.43635 37.7007 1.46066 37.7085C1.50926 37.724 1.58064 37.7468 1.67378 37.7762C1.86005 37.8352 2.13337 37.9209 2.48557 38.0294C3.1899 38.2464 4.21007 38.5547 5.48061 38.9223C8.02057 39.6571 11.5668 40.6304 15.5943 41.5848C23.5926 43.4802 33.6955 45.3525 41.5811 45.0324L41.5 43.034Z" fill="black"/>
</svg>
