<?xml version="1.0" encoding="UTF-8"?>
<!--Generator: Apple Native CoreSVG 341-->
<!DOCTYPE svg
PUBLIC "-//W3C//DTD SVG 1.1//EN"
       "http://www.w3.org/Graphics/SVG/1.1/DTD/svg11.dtd">
<svg version="1.1" xmlns="http://www.w3.org/2000/svg" xmlns:xlink="http://www.w3.org/1999/xlink" viewBox="0 0 19.9197 19.9218">
 <g>
  <rect height="19.9218" opacity="0" width="19.9197" x="0" y="0"/>
  <path d="M19.9197 9.95469C19.9197 15.4407 15.4511 19.9094 9.95469 19.9094C4.46866 19.9094 4.44089e-16 15.4407 4.44089e-16 9.95469C4.44089e-16 4.46866 4.46866 0 9.95469 0C15.4511 0 19.9197 4.46866 19.9197 9.95469ZM8.74496 7.07933L6.76366 12.5514C6.70651 12.7158 6.67835 12.8597 6.67835 13.001C6.67835 13.4347 6.96352 13.7035 7.42426 13.7035C7.86188 13.7035 8.09884 13.5146 8.22578 13.0539L8.60708 11.8687L11.2864 11.8687L11.6622 13.0539C11.7894 13.5146 12.0261 13.7035 12.4637 13.7035C12.9349 13.7035 13.2417 13.4187 13.2417 12.9824C13.2417 12.8141 13.216 12.6744 13.1538 12.4974L11.2007 7.07933C10.997 6.49525 10.602 6.21681 9.95443 6.21681C9.33814 6.21681 8.94751 6.49745 8.74496 7.07933ZM10.9166 10.7021L8.98234 10.7021L9.93861 7.72955L9.97416 7.72955Z" fill="white" fill-opacity="0.85"/>
 </g>
</svg>
